Coordinates
version=1
nRows=17
nColumns=34
inDegrees=yes

Units are S.I. units (second, meters, Newtons, ...)
If the header above contains a line with 'inDegrees', this indicates whether rotational values are in degrees (yes) or radians (no).

endheader
time	pelvis_tilt	pelvis_list	pelvis_rotation	pelvis_tx	pelvis_ty	pelvis_tz	hip_flexion_r	hip_adduction_r	hip_rotation_r	knee_angle_r	ankle_angle_r	subtalar_angle_r	mtp_angle_r	hip_flexion_l	hip_adduction_l	hip_rotation_l	knee_angle_l	ankle_angle_l	subtalar_angle_l	mtp_angle_l	lumbar_extension	lumbar_bending	lumbar_rotation	arm_flex_r	arm_add_r	arm_rot_r	elbow_flex_r	pro_sup_r	arm_flex_l	arm_add_l	arm_rot_l	elbow_flex_l	pro_sup_l
      3.05000000	     -0.37832704	      3.82940289	     -4.35701646	      0.56657615	      0.92612548	      0.30502065	     27.18022401	     -1.96040723	     -0.01077118	    -45.16552394	      0.22436549	     -9.53293829	     18.97617944	     -0.99354489	      7.16515478	     -2.13351672	     -9.86949938	     10.03642908	      0.03799247	      5.61047195	     -3.44658267	     -2.75363439	     -3.33686090	     -9.02212190	    -16.58301768	      5.62694870	     23.91327127	     90.00000000	     -4.27913000	    -18.69149237	      6.25726212	     33.49724062	     90.00000000
      3.06000000	     -0.25766360	      3.69604748	     -4.15348179	      0.57883910	      0.92569028	      0.30596900	     27.33833696	     -2.11197965	     -0.43112151	    -41.51350164	      0.47841425	     -9.91816125	     18.71448298	     -2.41794539	      7.01761204	     -1.89214719	     -9.10441545	     10.51874013	      0.20841055	      5.54358247	     -3.67932368	     -2.56103717	     -3.63623921	     -9.26981924	    -16.54125188	      5.42592379	     23.60956052	     90.00000000	     -4.03620254	    -18.90238078	      6.00179852	     34.56824896	     90.00000000
      3.07000000	     -0.14149535	      3.63591649	     -3.99060055	      0.59117298	      0.92499015	      0.30713232	     27.38800621	     -2.28111971	     -0.74018626	    -37.64866750	      0.52200749	    -10.05890351	     18.46673147	     -3.85269981	      6.93157713	     -1.66814166	     -8.28218120	     10.79807240	      0.41069654	      5.48019876	     -3.89421809	     -2.46656515	     -3.88927103	     -9.50706674	    -16.50576916	      5.18580060	     23.29815359	     90.00000000	     -3.78667748	    -19.15457985	      5.77979996	     35.52993680	     90.00000000
      3.08000000	      0.17392950	      3.51007428	     -3.80447900	      0.60369329	      0.92434445	      0.30824752	     27.09487753	     -2.44976132	     -1.16864250	    -33.65345856	      0.40752971	     -9.79274297	     18.17838614	     -5.51400098	      6.78015543	     -1.43903120	     -7.47616798	     11.11824397	      0.53516090	      5.40975147	     -4.34025418	     -2.29702999	     -4.16733759	     -9.61287847	    -16.43307037	      4.92378639	     22.81028507	     90.00000000	     -3.61370710	    -19.36919772	      5.47672002	     36.65352137	     90.00000000
      3.09000000	      0.45012838	      3.64892302	     -3.57337642	      0.61601205	      0.92334821	      0.30950814	     26.82579419	     -2.85983203	     -1.44907063	    -29.69881626	      0.44176471	     -8.94945191	     17.90528610	     -7.06709677	      6.87941054	     -1.07116064	     -6.73974768	     11.27827574	      0.67659977	      5.29151256	     -4.75929970	     -2.46512921	     -4.55634869	     -9.66674782	    -16.29495314	      4.70524137	     22.42301449	     90.00000000	     -3.48575452	    -19.66467876	      5.01059493	     37.82213851	     90.00000000
      3.10000000	      0.74740398	      3.77181761	     -3.31867111	      0.62862299	      0.92225231	      0.31064061	     26.44463128	     -3.29106414	     -1.81617675	    -25.77635387	      0.51337747	     -7.42379919	     17.58573159	     -8.65567234	      6.94701722	     -0.55222161	     -6.02729987	     11.45947854	      0.68696074	      5.15834563	     -5.15764538	     -2.59368633	     -4.89762253	     -9.79545936	    -16.20770546	      4.68443818	     22.09314211	     90.00000000	     -3.36522997	    -19.86105941	      4.41161811	     38.92442037	     90.00000000
      3.11000000	      1.08065759	      3.78812373	     -3.14407015	      0.64150543	      0.92109746	      0.31203760	     25.92669550	     -3.55776696	     -2.16133861	    -21.89302379	      0.47968481	     -5.74864143	     17.20299008	    -10.26017520	      6.88095868	     -0.29192961	     -5.40734522	     11.70344622	      0.85157414	      5.09104955	     -5.56355462	     -2.61890172	     -5.14934360	     -9.91224274	    -16.13017111	      4.60547781	     21.75483294	     90.00000000	     -3.24292922	    -20.03412535	      4.01279696	     39.85974265	     90.00000000
      3.12000000	      0.92077147	      3.94320479	     -2.91121522	      0.65413968	      0.91906140	      0.31345064	     25.90857219	     -3.84912938	     -2.14835485	    -18.13605693	      0.30169154	     -4.72482667	     17.06331137	    -11.14315981	      6.91280862	      0.02492842	     -5.12190035	     12.00624263	      1.01511330	      5.14418227	     -5.40234352	     -2.77142707	     -5.29659864	    -10.20208874	    -16.05766663	      4.54339688	     21.66725517	     90.00000000	     -2.97252613	    -20.19513880	      3.88056207	     40.42676899	     90.00000000
      3.13000000	      1.64191103	      3.85487081	     -2.57976483	      0.66736713	      0.91831671	      0.31468457	     24.93492927	     -4.13301320	     -3.21475752	    -14.79831256	      0.70084310	     -2.18310608	     16.63246186	    -13.10226285	      6.68692923	      0.38560011	     -4.65236579	     12.18330498	      1.16567139	      5.23542922	     -6.24526728	     -2.65934330	     -5.71373868	    -10.15084756	    -15.95634136	      4.38000034	     21.08428319	     90.00000000	     -2.90749776	    -20.32170598	      3.52102177	     41.42556920	     90.00000000
      3.14000000	      1.88976718	      3.81265060	     -2.23465007	      0.68051404	      0.91681838	      0.31605460	     24.32762262	     -4.28552343	     -3.75713150	    -11.49790045	      0.72689155	     -0.74513392	     15.94605083	    -14.37661973	      6.46758447	      0.74821133	     -4.51787995	     12.45842681	      1.25969544	      5.44760670	     -6.53493222	     -2.59435704	     -6.07339532	    -10.25799932	    -15.90861492	      4.42217112	     20.83027679	     90.00000000	     -2.82395938	    -20.44994245	      3.20430812	     42.12204524	     90.00000000
      3.15000000	      1.82563674	      3.88951894	     -2.01718402	      0.69356804	      0.91477392	      0.31782874	     24.33568066	     -4.45400861	     -3.83276302	     -9.08815714	      0.99309751	      0.22147613	     15.70911349	    -15.18006019	      6.35869977	      0.99416610	     -4.61424860	     12.70777268	      1.49884221	      5.57211486	     -6.43351865	     -2.66953375	     -6.24752520	    -10.43113175	    -15.83189015	      4.38020637	     20.69790048	     90.00000000	     -2.64986288	    -20.51656947	      3.04207725	     42.42763937	     90.00000000
      3.16000000	      2.33209536	      3.67494668	     -1.68219776	      0.70698489	      0.91371327	      0.31956463	     23.63424825	     -4.40374598	     -4.57294550	     -7.05869147	      1.43534288	      1.59613785	     14.76363137	    -16.58230448	      5.90115076	      1.01592979	     -4.75081711	     12.98112686	      2.07469966	      6.00063872	     -6.98426961	     -2.44091381	     -6.60292115	    -10.32452328	    -15.76191075	      4.53806417	     20.12996568	     90.00000000	     -2.62078752	    -20.58194428	      2.75034797	     43.04442297	     90.00000000
      3.17000000	      2.20699422	      3.75651815	     -1.53360498	      0.72034472	      0.91168738	      0.32176964	     23.95659971	     -4.47626137	     -4.70269023	     -6.02194987	      1.47763348	      1.76783267	     14.67638591	    -17.16651471	      5.78609663	      1.03867080	     -5.13318800	     13.12867617	      2.13388257	      6.06850752	     -6.76954874	     -2.54693421	     -6.65902090	    -10.59876854	    -15.65705293	      4.52507352	     20.23503373	     90.00000000	     -2.54289267	    -20.66541516	      2.66588878	     43.26373479	     90.00000000
      3.18000000	      2.61725611	      3.32459856	     -1.13568345	      0.73397150	      0.91080694	      0.32376276	     23.31934929	     -4.11815966	     -4.99545386	     -5.00054171	      1.19473360	      1.91472132	     13.58486649	    -18.20741908	      5.01959777	      0.77369308	     -5.77982843	     13.46817616	      3.30689661	      6.82656510	     -7.16987359	     -2.06683038	     -7.03909007	    -10.33043008	    -15.56239999	      4.87196623	     19.25269321	     90.00000000	     -2.49900512	    -20.62771747	      2.41431934	     43.43531589	     90.00000000
      3.19000000	      2.53531841	      3.28380072	     -0.91069537	      0.74768211	      0.90898599	      0.32580376	     23.45537487	     -4.07120961	     -5.03770652	     -4.79277350	      1.24721434	      1.85013193	     13.50476479	    -18.72112354	      4.74244089	      0.96621698	     -6.39680202	     13.50249467	      3.41215355	      6.93905643	     -6.96730056	     -2.01292932	     -7.18889023	    -10.52591448	    -15.53538338	      4.84622226	     19.36530803	     90.00000000	     -2.56312560	    -20.62403132	      2.39445156	     43.64631587	     90.00000000
      3.20000000	      2.80001988	      2.97969300	     -0.65560061	      0.76179035	      0.90797313	      0.32812032	     23.09076012	     -3.74356571	     -5.18489380	     -4.97879603	      1.30188428	      1.24343954	     11.97757243	    -19.53455925	      4.12457724	      0.79129644	     -7.15849153	     13.01018502	      3.98372692	     11.13797997	     -7.11339552	     -1.68365156	     -7.50795109	    -10.22325582	    -15.49619531	      5.84364852	     18.41710677	     90.00000000	     -2.75513215	    -20.53748042	      1.96186012	     43.78186597	     90.00000000
      3.21000000	      2.84867140	      2.87843821	     -0.42182526	      0.77613354	      0.90655996	      0.33029537	     23.07878275	     -3.63894324	     -5.38611410	     -5.82388476	      1.53326867	      0.88897474	     11.84633318	    -20.06082525	      3.72926663	      0.84174972	     -8.04482088	     12.84284544	      4.42282561	     11.30545870	     -6.97318404	     -1.56921702	     -7.69384417	    -10.32323924	    -15.40972521	      5.66366281	     18.28324393	     90.00000000	     -2.93207457	    -20.45041917	      1.84695224	     43.70423649	     90.00000000
